# xmcd CD database file
#
# Track frame offsets:
#	150
#	14515
#	29652
#	44702
#	58710
#	71992
#	86167
#	101972
#	115200
#	129010
#
# Disc length: 1889 seconds
#
# Revision: 0
# Processed by: cddbd v1.5PL3 Copyright (c) Steve Scherf et al.
# Submitted via: CDex 1.60beta1
#
DISCID=95075f0a
DTITLE=Tommy Dorsey - Swinging With T.D.!
DYEAR=1999
DGENRE=Jazz
TTITLE0=Boogie Woogie
TTITLE1=The Music Goes 'Round and Around
TTITLE2=Marie
TTITLE3=Who?
TTITLE4=Opus One
TTITLE5=Song of India
TTITLE6=Yes, Indeed!
TTITLE7=Music, Maestro, Please!
TTITLE8=Chinatown, My Chinatown
TTITLE9=They Can't Take That Away from Me
EXTD=YEAR: 1999
EXTT0=
EXTT1=
EXTT2=
EXTT3=
EXTT4=
EXTT5=
EXTT6=
EXTT7=
EXTT8=
EXTT9=
PLAYORDER=
